<svg xmlns="http://www.w3.org/2000/svg" xmlns:svg="http://www.w3.org/2000/svg" id="Capa_1" width="512" height="512" x="0" y="0" version="1.1" viewBox="0 0 512 512" xml:space="preserve"><metadata id="metadata974"/><g id="g937" transform="translate(0,21.717987)" style="display:inline"><path id="path935" d="M 0.04506483,234.35003 C 0.67164339,246.595 7.6684373,256.90017 17.798124,260.41605 l 187.555846,65.83187 6.89237,150.0918 c 0.31328,5.94063 3.75947,11.15383 8.66767,13.09363 1.35758,0.60619 2.8196,0.84866 4.17719,0.84866 3.65504,0 7.10122,-1.69732 9.60753,-4.97073 l 66.3129,-85.22984 93.98679,75.53085 c 4.17719,3.39465 9.08539,5.21321 14.20244,5.21321 11.80057,0 22.03468,-9.69899 24.541,-23.27757 L 511.75089,-4.0025352 c 0.93987,-5.3344421 -0.83544,-10.9113588 -4.38605,-14.3060038 -3.65504,-3.515882 -8.56324,-4.364543 -12.94929,-2.303509 L 15.08295,205.85926 c -9.7119674,5.09197 -15.66446374,16.2458 -15.03788517,28.49077 z M 236.05632,439.11986 231.7747,344.43352 279.81239,382.98698 Z M 408.78315,450.63741 237.7272,313.15429 477.60236,43.764965 Z M 451.28606,31.883708 214.12607,298.2421 26.779083,232.53147 Z" style="stroke-width:1.12520146"/></g></svg>