<svg xmlns="http://www.w3.org/2000/svg" xmlns:svg="http://www.w3.org/2000/svg" id="svg1341" width="64" height="64" version="1.1" viewBox="0 0 64 64"><metadata id="metadata1345"/><title id="title1216">preferences</title><desc id="desc1218">Created with Sketch.</desc><defs id="defs1315"><radialGradient id="radialGradient-1" cx="9.965" cy="91.6" r="9.798" fx="9.965" fy="91.6" gradientTransform="scale(1.6329932,0.61237244)" gradientUnits="userSpaceOnUse"><stop id="stop1220" offset="0%" stop-color="#000"/><stop id="stop1222" offset="100%" stop-color="#000" stop-opacity="0"/></radialGradient><radialGradient id="radialGradient-2" cx="7.051" cy="115.047" r="3" fx="7.051" fy="115.047" gradientTransform="scale(2,0.5)" gradientUnits="userSpaceOnUse"><stop id="stop1225" offset="0%" stop-color="#000"/><stop id="stop1227" offset="100%" stop-color="#000" stop-opacity="0"/></radialGradient><radialGradient id="radialGradient-3" cx="32.815" cy="32.672" r="7.246" fx="32.815" fy="32.672" gradientTransform="scale(0.96609178,1.0350983)" gradientUnits="userSpaceOnUse"><stop id="stop1230" offset="0%" stop-color="#000"/><stop id="stop1232" offset="100%" stop-color="#000" stop-opacity="0"/></radialGradient><radialGradient id="radialGradient-4" cx="29.916" cy="94.461" r="9.184" fx="29.916" fy="94.461" gradientTransform="scale(1.6434188,0.60848764)" gradientUnits="userSpaceOnUse"><stop id="stop1235" offset="0%" stop-color="#000"/><stop id="stop1237" offset="100%" stop-color="#000" stop-opacity="0"/></radialGradient><radialGradient id="radialGradient-5" cx="29.054" cy="99.496" r="3.61" fx="29.054" fy="99.496" gradientTransform="scale(1.7105339,0.5846128)" gradientUnits="userSpaceOnUse"><stop id="stop1240" offset="0%" stop-color="#000"/><stop id="stop1242" offset="100%" stop-color="#000" stop-opacity="0"/></radialGradient><linearGradient id="linearGradient-6" x1="41.378" x2="-3.884" y1="13.536" y2="19.47" gradientTransform="scale(0.61533516,1.6251306)" gradientUnits="userSpaceOnUse"><stop id="stop1245" offset="0%" stop-color="#D3D7CF"/><stop id="stop1247" offset="100%" stop-color="#EEEEEC"/></linearGradient><linearGradient id="linearGradient-7" x1="41.409" x2="-5.398" y1="19.353" y2="34.805" gradientTransform="scale(0.61533516,1.6251306)" gradientUnits="userSpaceOnUse"><stop id="stop1250" offset="0%" stop-color="#888A85"/><stop id="stop1252" offset="100%" stop-color="#555753"/></linearGradient><linearGradient id="linearGradient-8" x1="37.508" x2="-31.925" y1="5.008" y2="12.355" gradientTransform="scale(0.58964101,1.6959472)" gradientUnits="userSpaceOnUse"><stop id="stop1255" offset="0%" stop-color="#FFF"/><stop id="stop1257" offset="100%" stop-color="#FFF" stop-opacity="0"/></linearGradient><linearGradient id="linearGradient-9" x1="12.071" x2="12.071" y1="63.983" y2="59.463" gradientTransform="scale(1.0496204,0.95272539)" gradientUnits="userSpaceOnUse"><stop id="stop1260" offset="0%" stop-color="#FFF"/><stop id="stop1262" offset="100%" stop-color="#BABDB6"/></linearGradient><linearGradient id="linearGradient-10" x1="35.861" x2="11.621" y1="17.407" y2="20.49" gradientTransform="scale(0.45202789,2.2122529)" gradientUnits="userSpaceOnUse"><stop id="stop1265" offset="0%" stop-color="#2E3436"/><stop id="stop1267" offset="100%" stop-color="#729FCF"/></linearGradient><linearGradient id="linearGradient-11" x1="17.902" x2="11.803" y1="20.274" y2="8.607" gradientTransform="scale(0.98848716,1.0116469)" gradientUnits="userSpaceOnUse"><stop id="stop1270" offset="0%" stop-color="#FFF"/><stop id="stop1272" offset="100%" stop-color="#FFF" stop-opacity="0"/></linearGradient><linearGradient id="linearGradient-12" x1="17.811" x2="17.811" y1="25.561" y2="9.243" gradientTransform="scale(1.1666541,0.85715209)" gradientUnits="userSpaceOnUse"><stop id="stop1275" offset="0%" stop-color="#FFF"/><stop id="stop1277" offset="100%" stop-color="#FFF" stop-opacity="0"/></linearGradient><linearGradient id="linearGradient-13" x1="5.46" x2="25.668" y1="43.955" y2="43.996" gradientTransform="scale(0.88264178,1.1329625)" gradientUnits="userSpaceOnUse"><stop id="stop1280" offset="0%" stop-color="#729FCF"/><stop id="stop1282" offset="100%" stop-color="#295EAD"/></linearGradient><linearGradient id="linearGradient-14" x1="7.923" x2="53.286" y1="36.082" y2="50.815" gradientTransform="scale(0.80944359,1.2354165)" gradientUnits="userSpaceOnUse"><stop id="stop1285" offset="0%" stop-color="#FFF"/><stop id="stop1287" offset="100%" stop-color="#FFF" stop-opacity="0"/></linearGradient><linearGradient id="linearGradient-15" x1="14.032" x2="22.379" y1="16.248" y2="16.248" gradientTransform="scale(0.55947245,1.7873981)" gradientUnits="userSpaceOnUse"><stop id="stop1290" offset="0%" stop-color="#EEEEEC"/><stop id="stop1292" offset="100%" stop-color="#A2A298"/></linearGradient><linearGradient id="linearGradient-16" x1="13.875" x2="5.318" y1="23.283" y2="23.156" gradientTransform="scale(0.47595682,2.1010309)" gradientUnits="userSpaceOnUse"><stop id="stop1295" offset="0%" stop-color="#FFF"/><stop id="stop1297" offset="100%" stop-color="#FFF" stop-opacity=".294"/></linearGradient><linearGradient id="linearGradient-17" x1="16.858" x2="20.851" y1="28.497" y2="28.497" gradientTransform="scale(0.54958759,1.8195462)" gradientUnits="userSpaceOnUse"><stop id="stop1300" offset="0%" stop-color="#0C1D35"/><stop id="stop1302" offset="100%" stop-color="#FFF" stop-opacity=".294"/></linearGradient><linearGradient id="linearGradient-18" x1="29.927" x2="39.986" y1="24.472" y2="24.478" gradientTransform="scale(0.47595682,2.1010309)" gradientUnits="userSpaceOnUse"><stop id="stop1305" offset="0%" stop-color="#000"/><stop id="stop1307" offset="100%" stop-color="#000" stop-opacity="0"/></linearGradient><linearGradient id="linearGradient-19" x1="7.917" x2="7.917" y1="1.136" y2="9.587" gradientTransform="scale(1.0642718,0.93960958)" gradientUnits="userSpaceOnUse"><stop id="stop1310" offset="0%" stop-color="#EEEEEC"/><stop id="stop1312" offset="100%" stop-color="#EEEEEC" stop-opacity="0"/></linearGradient></defs><g id="Page-1" transform="matrix(0.98461537,0,0,1.1055353,0,-0.09866169)" style="fill:none;fill-rule:evenodd;stroke:none;stroke-width:1"><g id="preferences" transform="matrix(1,0,0,0.99998727,0,-4.9991981)"><path id="path5331" d="m 32,56 c 0,3.313708 -7.163444,6 -16,6 -8.836556,0 -16,-2.686292 -16,-6 0,-3.313708 7.163444,-6 16,-6 8.836556,0 16,2.686292 16,6 z" style="opacity:.15;fill:url(#radialGradient-1);fill-rule:nonzero"/><path id="path6769" d="M 20,57.5 C 20,58.328427 17.313708,59 14,59 10.686291,59 8,58.328427 8,57.5 8,56.671573 10.686291,56 14,56 c 3.313708,0 6,0.671573 6,1.5 z" style="opacity:.2;fill:url(#radialGradient-2);fill-rule:nonzero"/><polygon id="path6010" points="35.213 26 25 36.942 28.787 41 39 30.058" style="opacity:.5;fill:url(#radialGradient-3);fill-rule:nonzero"/><g id="g6807" transform="matrix(1.104074,0,0,1.0000019,-5.660737,-1.2746285e-4)"><path id="path6765" d="m 64.000001,57.391468 c 0,3.086326 -6.757362,5.588288 -15.092991,5.588288 -8.335628,0 -15.09299,-2.501962 -15.09299,-5.588288 0,-3.086327 6.757362,-5.588289 15.09299,-5.588289 8.335629,0 15.092991,2.501962 15.092991,5.588289 z" style="opacity:.15;fill:url(#radialGradient-4);fill-rule:nonzero"/><path id="path6773" d="m 55.767443,58.133896 c 0,1.165453 -2.764375,2.110239 -6.174403,2.110239 -3.410029,0 -6.174404,-0.944786 -6.174404,-2.110239 0,-1.165452 2.764375,-2.110239 6.174404,-2.110239 3.410028,0 6.174403,0.944787 6.174403,2.110239 z" style="opacity:.2;fill:url(#radialGradient-5);fill-rule:nonzero"/><g id="g6739" transform="translate(0.414395,0.380927)"><g id="g6553" transform="rotate(-45,22.466954,8.6072227)"><path id="path6491" d="M 7.9190246,0.20861325 C 3.7324945,1.8406397 0.79190246,5.561465 0.79190246,9.8805395 c 0,4.0391655 2.57928964,7.5472095 6.33521964,9.3202195 v 40.468644 c 0,2.727835 2.4723195,4.923889 5.5433169,4.92389 3.070998,0 5.543318,-2.196056 5.543318,-4.92389 V 19.200759 c 3.75593,-1.77301 6.335219,-5.281054 6.335219,-9.3202195 0,-4.3190749 -2.940592,-8.0398999 -7.127122,-9.67192625 V 8.5616404 l -2.722165,2.8136516 h -4.0585 L 7.9190246,8.5616404 Z" style="fill:url(#linearGradient-6);fill-rule:nonzero;stroke:url(#linearGradient-7);stroke-width:.99999994;stroke-linecap:round;stroke-linejoin:round"/><path id="path6505" d="M 6.2857258,2.802448 C 3.9455194,4.4741578 2.4252013,7.0028056 2.4252013,9.8805395 c 0,3.4984255 2.1957665,6.5117805 5.4443294,8.0452835 0.544273,0.241355 0.8889295,0.734586 0.8908903,1.274936 v 40.468644 c 0,1.960356 1.703048,3.4731 3.910018,3.473101 2.206969,0 3.910019,-1.512747 3.910019,-3.473101 V 19.200759 c 0.002,-0.54035 0.346617,-1.033581 0.89089,-1.274936 3.248563,-1.533503 5.444329,-4.546858 5.444329,-8.0452835 0,-2.8777343 -1.520318,-5.4063818 -3.860524,-7.0780915 v 5.7591924 c -0.0043,0.3397517 -0.14469,0.6670367 -0.395951,0.9232294 l -2.722165,2.8136512 c -0.303183,0.331022 -0.756945,0.524488 -1.237348,0.527559 h -4.0585 C 10.160786,12.823009 9.7070247,12.629543 9.4038417,12.298521 L 6.681677,9.4848698 C 6.4304158,9.2286771 6.2900511,8.9013921 6.2857258,8.5616404 Z" style="stroke:url(#linearGradient-8);stroke-width:.99999994;stroke-linecap:round"/><path id="path6507" d="m 15.046147,59.669403 c 0,1.165452 -1.063641,2.110238 -2.375708,2.110238 -1.312067,0 -2.375707,-0.944786 -2.375707,-2.110238 0,-1.165453 1.06364,-2.110239 2.375707,-2.110239 1.312067,0 2.375708,0.944786 2.375708,2.110239 z" style="fill:#888a85;fill-rule:nonzero;stroke:url(#linearGradient-9);stroke-width:1;stroke-linecap:round"/><rect id="rect6533" width="6.324" height="30.95" x="9.508" y="22.509" rx="1.738" transform="rotate(-0.021978,12.67044,37.984759)" style="opacity:.23106061;fill:url(#linearGradient-10);fill-rule:nonzero"/></g><path id="path6573" d="m 14.568368,8.6189139 3.971822,4.0723631 c 0.23166,0.242958 0.371387,0.562546 0.39415,0.901517 l 0.272874,3.699322 c 0.04256,0.424496 -0.10198,0.846301 -0.394151,1.150211 l -2.486179,2.549113 c -0.296406,0.299565 -0.707798,0.447769 -1.121812,0.404128 L 11.59708,21.115787 c -0.330602,-0.02334 -0.642299,-0.166604 -0.879258,-0.404128 L 6.7459984,16.639294" style="stroke:url(#linearGradient-11);stroke-width:.99999994;stroke-linecap:round"/><path id="path6651" d="m 15.590843,7.9278053 c -0.807909,0.00215 -1.612787,0.1062549 -2.401163,0.3077431 l 4.845204,4.9678526 c 0.122972,0.124326 0.200446,0.26314 0.214389,0.439633 l 0.300146,3.692917 c 0.01871,0.219484 -0.06127,0.460913 -0.21439,0.615487 l -2.186773,2.286091 c 2.955597,0.719161 5.370188,2.05128 8.532703,0.307743 1.00286,-3.360729 0.191845,-7.189133 -2.401163,-9.847779 C 20.43045,8.801332 18.014571,7.9213697 15.590843,7.9278053 Z m -9.21875,7.2979077 c -0.5404124,2.222914 -0.3685148,4.59081 0.6002907,6.682422 1.546036,-0.958896 2.9132211,-1.512228 4.1591573,-1.802496 z" style="opacity:.59051723;fill:url(#linearGradient-12);fill-rule:nonzero"/></g></g><g id="g6432" transform="matrix(0.83470718,0.74336929,-0.83470718,0.74336929,51.07992,2.9898987)"><rect id="rect5288" width="19.255" height="25" x=".133" y="38" rx="4.074" transform="rotate(0.15498,9.760408,50.5)" style="fill:url(#linearGradient-13);fill-rule:nonzero;stroke:#052f6c;stroke-width:1.0000124;stroke-linecap:round;stroke-linejoin:round"/><rect id="rect5292" width="14.725" height="23" x="2.398" y="39" rx="3.08" transform="rotate(0.166119,9.760408,50.5)" style="opacity:.5;stroke:url(#linearGradient-14);stroke-width:1.00001645;stroke-linecap:round;stroke-linejoin:round"/><path id="path5286" d="M 3.530698,0 4.3107769,7.075803 6.4669466,9.5145736 6.4511508,40.350244 c 0.1927598,2.14582 6.1788112,2.257754 6.5643332,-0.01429 L 13.07019,9.5321821 15.267687,7.6788079 15.990117,0.0207686 C 15.990117,0.0207686 3.530698,0 3.530698,0 Z" style="fill:url(#linearGradient-15);fill-rule:nonzero;stroke:#888a85;stroke-width:1.00000024;stroke-linecap:round;stroke-linejoin:round"/><rect id="rect2804" width="3.398" height="15" x="2.398" y="44" rx=".666" transform="rotate(0.246341,4.097035,51.5)" style="opacity:.3;fill:url(#linearGradient-16);fill-rule:nonzero"/><rect id="rect5290" width="4.531" height="15" x="8.061" y="44" rx="1.347" transform="rotate(0.206969,10.326745,51.5)" style="opacity:.3;fill:url(#linearGradient-17);fill-rule:nonzero"/><rect id="rect5398" width="3.398" height="15" x="13.725" y="44" rx=".666" transform="rotate(0.246342,15.42378,51.5)" style="opacity:.25;fill:url(#linearGradient-18);fill-rule:nonzero"/><path id="path5450" d="m 4.6633724,0 0.6841658,6.2727273 2.0524974,2.3181818 c 0.092646,0.1111884 0.1398238,0.2365636 0.1368332,0.3636364 L 11.983947,9 c -0.01,-0.1624995 0.06227,-0.322537 0.205249,-0.4545454 L 14.173277,6.7727273 14.857443,0 C 13.139405,0 6.3814102,0 4.6633724,0 Z" style="fill:url(#linearGradient-19);fill-rule:nonzero"/></g></g></g></svg>