<svg xmlns="http://www.w3.org/2000/svg" xmlns:svg="http://www.w3.org/2000/svg" id="svg3725" width="270" height="270" version="1.1"><metadata id="metadata3731"/><rect id="rect169" width="270" height="270" x="0" y="0" style="fill:#fffffe;fill-opacity:1;stroke-width:.99070013"/><path id="path3723" d="M 10,229.82759 V 199.65517 H 70.34483 V 260 H 10 Z m 51.72414,0 V 208.27586 H 18.62069 v 43.10345 h 43.10345 z m -34.48276,0 v -12.93104 h 25.86207 v 25.86207 H 27.24138 Z M 10,40.172412 V 10 H 70.34483 V 70.344829 H 10 Z m 51.72414,0 V 18.62069 H 18.62069 v 43.103446 h 43.10345 z m -34.48276,0 V 27.241377 h 25.86207 v 25.86207 H 27.24138 Z m 172.41379,0 V 10 H 260 v 60.344829 h -60.34483 z m 51.72414,0 V 18.62069 h -43.10345 v 43.103446 h 43.10345 z m -34.48276,0 V 27.241377 h 25.86207 v 25.86207 h -25.86207 z" style="fill:#000;fill-opacity:1;stroke:none;stroke-width:1.07758617;stroke-opacity:1"/></svg>