<svg xmlns="http://www.w3.org/2000/svg" xmlns:svg="http://www.w3.org/2000/svg" id="svg123" width="128" height="128" enable-background="new 0 0 24 24" version="1.1" viewBox="0 0 128 128"><metadata id="metadata129"/><path id="path121" d="M 25.111111,14 C 19,14 14,19 14,25.111111 V 102.88889 C 14,109 19,114 25.111111,114 H 102.88889 C 109,114 114,109 114,102.88889 V 30.666666 L 97.333336,14 Z m 16.666667,5.555555 H 86.222222 V 47.333334 H 41.777778 Z m 27.777777,5.555556 V 41.777778 H 80.666666 V 25.111111 Z M 36.222222,64 h 55.555556 c 3.333331,0 5.555558,2.222222 5.555558,5.555555 V 97.33334 c 0,3.33332 -2.222227,5.55555 -5.555558,5.55555 H 36.222222 c -3.333333,0 -5.555556,-2.22223 -5.555556,-5.55555 V 69.555555 C 30.666666,66.222222 32.888889,64 36.222222,64 Z" style="stroke-width:5.55555582;fill:#ccc;fill-opacity:1"/></svg>