<svg xmlns="http://www.w3.org/2000/svg" xmlns:svg="http://www.w3.org/2000/svg" xmlns:xlink="http://www.w3.org/1999/xlink" id="svg7854" width="256" height="256" version="1.0"><defs id="defs7856"><linearGradient id="linearGradient2799"><stop id="stop2795" offset="0" style="stop-color:#000;stop-opacity:1"/><stop id="stop2797" offset="1" style="stop-color:#4d4d4d;stop-opacity:1"/></linearGradient><linearGradient id="linearGradient7577"><stop style="stop-color:#000;stop-opacity:.3137255" id="stop7579" offset="0"/><stop style="stop-color:#fff;stop-opacity:1" id="stop7581" offset="1"/></linearGradient><linearGradient id="linearGradient5167"><stop id="stop5169" offset="0" style="stop-color:#76d717;stop-opacity:1"/><stop id="stop5171" offset="1" style="stop-color:#509e07;stop-opacity:1"/></linearGradient><linearGradient id="linearGradient5184"><stop id="stop5186" offset="0" style="stop-color:white;stop-opacity:1"/><stop id="stop5188" offset="1" style="stop-color:white;stop-opacity:0"/></linearGradient><linearGradient id="linearGradient5172"><stop id="stop5174" offset="0" style="stop-color:white;stop-opacity:1"/><stop id="stop5176" offset="1" style="stop-color:white;stop-opacity:0"/></linearGradient><linearGradient id="linearGradient8317" x1="15.012" x2="16.658" y1="10.884" y2="17.024" gradientUnits="userSpaceOnUse" xlink:href="#linearGradient7577"/><radialGradient id="radialGradient8319" cx="15.866" cy="20.411" r="7.59" fx="15.866" fy="20.411" gradientUnits="userSpaceOnUse" xlink:href="#linearGradient5167"/><radialGradient id="radialGradient8321" cx="14.057" cy="11.309" r="5.969" fx="14.057" fy="11.309" gradientTransform="matrix(-4.2002315,0.5953403,0.2958442,2.0989386,-274.68882,-18.732928)" gradientUnits="userSpaceOnUse" xlink:href="#linearGradient5184"/><linearGradient id="linearGradient8323" x1="8.932" x2="13.459" y1="2.018" y2="26.432" gradientUnits="userSpaceOnUse" xlink:href="#linearGradient5172"/><linearGradient id="linearGradient2805" x1="51.269" x2="50.876" y1="96.599" y2="4.029" gradientUnits="userSpaceOnUse" xlink:href="#linearGradient2799"/></defs><metadata id="metadata7859"/><g id="layer1" transform="translate(103.99916,103.99797)"><g id="g7170" transform="matrix(8.5360982,0,0,8.5344876,2806.7615,-180.84299)"><circle style="color:#000;display:inline;overflow:visible;visibility:visible;opacity:.4;fill:url(#linearGradient8317);fill-opacity:1;fill-rule:nonzero;stroke:none;stroke-width:.52702755;stroke-linecap:butt;stroke-linejoin:miter;stroke-miterlimit:4;stroke-dasharray:none;stroke-dashoffset:0;stroke-opacity:1;marker:none;marker-start:none;marker-mid:none;marker-end:none" id="path7691" cx="15.866" cy="16.134" r="7.115" transform="matrix(2.1074616,0,0,2.1078593,-359.43551,-10.006786)"/><g id="g7564"><circle style="color:#000;display:inline;overflow:visible;visibility:visible;fill:url(#radialGradient8319);fill-opacity:1;fill-rule:nonzero;stroke:#336402;stroke-width:.52702755;stroke-linecap:butt;stroke-linejoin:miter;stroke-miterlimit:4;stroke-dasharray:none;stroke-dashoffset:0;stroke-opacity:1;marker:none;marker-start:none;marker-mid:none;marker-end:none" id="path7968" cx="15.866" cy="16.134" r="7.115" transform="matrix(1.897257,0,0,1.897615,-356.10046,-6.6146433)"/><path style="color:#000;display:inline;overflow:visible;visibility:visible;opacity:.64044949;fill:url(#radialGradient8321);fill-opacity:1;fill-rule:nonzero;stroke:none;stroke-width:1.09465754;stroke-linecap:butt;stroke-linejoin:miter;stroke-miterlimit:4;stroke-dasharray:none;stroke-dashoffset:0;stroke-opacity:1;marker:none;marker-start:none;marker-mid:none;marker-end:none" id="path7970" d="m -324.6139,13.485003 c -5.06631,-0.760077 -9.93427,2.372845 -11.3861,7.279513 1.18871,3.18039 3.90811,5.70993 7.46677,6.47724 5.29459,1.141602 10.50115,-2.027543 12.01505,-7.143895 -1.18869,-3.180413 -3.90812,-5.709952 -7.46675,-6.477239 -0.217,-0.04678 -0.41248,-0.103152 -0.62897,-0.135619 z"/><circle id="path7972" cx="15.866" cy="16.134" r="7.115" transform="matrix(1.7591324,0,0,1.7580929,-353.90899,-4.3562887)" style="color:#000;display:inline;overflow:visible;visibility:visible;opacity:.54494413;fill:none;fill-opacity:1;fill-rule:nonzero;stroke:url(#linearGradient8323);stroke-width:.56863129;stroke-linecap:butt;stroke-linejoin:miter;stroke-miterlimit:4;stroke-dasharray:none;stroke-dashoffset:0;stroke-opacity:1;marker:none;marker-start:none;marker-mid:none;marker-end:none"/></g></g></g><g style="fill-opacity:1;fill:url(#linearGradient2805)" id="g2769" transform="matrix(1.6522577,0,0,1.6522577,42.530808,45.139276)"><path style="fill-opacity:1;fill:url(#linearGradient2805)" id="path2765" d="M 56.2,62.5 C 56.2,51 50.4,44.6 44.8,38.3 40.5,33.5 36.3,28.9 34.3,21.7 l 5.8,5.1 c 0.9,0.8 2,1.2 3.1,1.2 1.3,0 2.6,-0.5 3.6,-1.6 1.7,-2 1.6,-5 -0.4,-6.7 L 29.8,5.2 C 28.9,4.4 27.8,4 26.7,4 26.4,4 26.2,4 25.9,4.1 24.5,4.3 23.3,5.2 22.5,6.4 L 12.5,24 c -1.3,2.3 -0.5,5.2 1.8,6.5 0.7,0.4 1.5,0.6 2.3,0.6 1.7,0 3.3,-0.9 4.1,-2.4 l 3.7,-6.5 c 2.5,10.7 8.3,17.1 13.2,22.5 5,5.5 9,9.9 9,17.8 v 29 c 0,2.6 2.1,4.8 4.8,4.8 2.6,0 4.8,-2.1 4.8,-4.8 z"/><path style="fill-opacity:1;fill:url(#linearGradient2805)" id="path2767" d="M 90.6,35.6 78,19.2 c -0.9,-1.1 -2.2,-1.8 -3.6,-1.9 -1.4,0 -2.8,0.5 -3.7,1.6 L 56.9,34.6 c -1.7,2 -1.5,5 0.4,6.7 2,1.7 5,1.5 6.7,-0.4 l 5.5,-6.3 c -1.4,9.2 -5.8,14.6 -10.5,19.8 0.6,2.4 1,5.1 1,8 V 68 c 1.5,-2.1 3.2,-4.1 5.2,-6.3 C 70.5,55.9 77,48.7 78.9,36 l 4.1,5.4 c 0.9,1.2 2.3,1.9 3.8,1.9 1,0 2,-0.3 2.9,-1 2.1,-1.7 2.5,-4.6 0.9,-6.7 z"/></g></svg>