<svg xmlns="http://www.w3.org/2000/svg" xmlns:svg="http://www.w3.org/2000/svg" xmlns:xlink="http://www.w3.org/1999/xlink" id="svg11300" width="256" height="256" version="1.0"><defs id="defs3"><linearGradient id="linearGradient5335"><stop id="stop5337" offset="0" style="stop-color:#fff;stop-opacity:1"/><stop id="stop5339" offset="1" style="stop-color:#fff;stop-opacity:0"/></linearGradient><linearGradient id="linearGradient5313"><stop style="stop-color:#99b8df;stop-opacity:1" id="stop5315" offset="0"/><stop id="stop5333" offset=".237" style="stop-color:#3969a8;stop-opacity:1"/><stop id="stop5317" offset=".547" style="stop-color:#4f7eba;stop-opacity:1"/><stop style="stop-color:#96b6d7;stop-opacity:1" id="stop5321" offset=".746"/><stop id="stop5331" offset=".873" style="stop-color:#a0bddc;stop-opacity:1"/><stop style="stop-color:#729fcf;stop-opacity:1" id="stop5319" offset="1"/></linearGradient><linearGradient id="linearGradient8152"><stop id="stop8154" offset="0" style="stop-color:#3465a4;stop-opacity:1"/><stop style="stop-color:#4f7eba;stop-opacity:1" id="stop3174" offset=".5"/><stop id="stop8156" offset="1" style="stop-color:#729fcf;stop-opacity:1"/></linearGradient><linearGradient id="linearGradient3207"><stop id="stop3209" offset="0" style="stop-color:#eeeeec;stop-opacity:.47058824"/><stop id="stop3211" offset="1" style="stop-color:#eeeeec;stop-opacity:0"/></linearGradient><linearGradient id="linearGradient2847"><stop id="stop2849" offset="0" style="stop-color:#3465a4;stop-opacity:1"/><stop id="stop2851" offset="1" style="stop-color:#3465a4;stop-opacity:0"/></linearGradient><linearGradient id="linearGradient2831"><stop id="stop2833" offset="0" style="stop-color:#3465a4;stop-opacity:1"/><stop style="stop-color:#5b86be;stop-opacity:1" id="stop2855" offset=".333"/><stop id="stop2835" offset="1" style="stop-color:#83a8d8;stop-opacity:0"/></linearGradient><linearGradient id="linearGradient8662"><stop id="stop8664" offset="0" style="stop-color:#000;stop-opacity:1"/><stop id="stop8666" offset="1" style="stop-color:#000;stop-opacity:0"/></linearGradient><linearGradient id="linearGradient1486" x1="13.479" x2="15.419" y1="10.612" y2="19.115" gradientTransform="matrix(1.0818662,0,0,1.1166851,-0.8207482,-1.8622434)" gradientUnits="userSpaceOnUse" xlink:href="#linearGradient2831"/><linearGradient id="linearGradient1488" x1="37.128" x2="37.403" y1="29.73" y2="26.801" gradientTransform="matrix(-1.0818662,0,0,-1.1166851,50.09459,49.644854)" gradientUnits="userSpaceOnUse" xlink:href="#linearGradient2847"/><radialGradient id="radialGradient1503" cx="24.837" cy="36.421" r="15.645" fx="24.837" fy="36.421" gradientTransform="matrix(1,0,0,0.536723,0,16.87306)" gradientUnits="userSpaceOnUse" xlink:href="#linearGradient8662"/><linearGradient id="linearGradient8158" x1="49.412" x2="11.881" y1="37.904" y2="19.776" gradientUnits="userSpaceOnUse" xlink:href="#linearGradient8152"/><linearGradient id="linearGradient8170" x1="13.479" x2="15.419" y1="10.612" y2="19.115" gradientTransform="matrix(-1.0818662,0,0,-1.1166851,48.639854,47.862243)" gradientUnits="userSpaceOnUse" xlink:href="#linearGradient2831"/><linearGradient id="linearGradient8172" x1="37.128" x2="37.403" y1="29.73" y2="26.801" gradientTransform="matrix(1.0818662,0,0,1.1166851,-2.2754847,-3.644854)" gradientUnits="userSpaceOnUse" xlink:href="#linearGradient2847"/><linearGradient id="linearGradient8174" x1="49.412" x2="11.881" y1="37.904" y2="19.776" gradientUnits="userSpaceOnUse" xlink:href="#linearGradient8152"/><linearGradient id="linearGradient8178" x1="5.893" x2="45.199" y1="20.541" y2="27.721" gradientUnits="userSpaceOnUse" xlink:href="#linearGradient3207"/><linearGradient id="linearGradient8180" x1="61.573" x2="10.969" y1="28.05" y2="20.334" gradientUnits="userSpaceOnUse" xlink:href="#linearGradient5313"/><linearGradient id="linearGradient5341" x1="8.688" x2="52.123" y1="25.266" y2="25.266" gradientUnits="userSpaceOnUse" xlink:href="#linearGradient5335"/><linearGradient id="linearGradient1563" x1="61.573" x2="10.969" y1="28.05" y2="20.334" gradientUnits="userSpaceOnUse" xlink:href="#linearGradient5313"/><linearGradient id="linearGradient1565" x1="8.688" x2="52.123" y1="25.266" y2="25.266" gradientUnits="userSpaceOnUse" xlink:href="#linearGradient5335"/></defs><metadata id="metadata4"/><g id="layer1" transform="translate(104.69628,102.88106)"><g id="g1561" transform="matrix(5.4016926,0,0,5.7993308,-102.57583,-121.42988)"><ellipse id="path8660" cx="24.837" cy="36.421" rx="15.645" ry="8.397" transform="matrix(-1.5146484,0,0,-0.7917058,60.923237,69.528413)" style="color:#000;display:inline;overflow:visible;visibility:visible;opacity:.36111109;fill:url(#radialGradient1503);fill-opacity:1;fill-rule:evenodd;stroke:none;stroke-width:1;stroke-linecap:butt;stroke-linejoin:miter;stroke-miterlimit:10;stroke-dasharray:none;stroke-dashoffset:0;stroke-opacity:1;marker:none;marker-start:none;marker-mid:none;marker-end:none"/><path style="color:#000;display:block;overflow:visible;visibility:visible;opacity:.51807233;fill:url(#linearGradient1486);fill-opacity:1;fill-rule:nonzero;stroke:url(#linearGradient1488);stroke-width:1.04300582;stroke-linecap:butt;stroke-linejoin:miter;stroke-miterlimit:4;stroke-dasharray:none;stroke-dashoffset:0;stroke-opacity:1;marker:none;marker-start:none;marker-mid:none;marker-end:none" id="path2865" d="m 20.478497,9.7711467 c 0,0 -7.845509,-1.8273465 -6.110474,11.2531513 H 5.1028658 c 0,0 0.9056674,-13.4865207 15.3756312,-11.2531513 z"/><g id="g1878" transform="matrix(-0.6129282,-0.5154381,-0.5178496,0.610074,58.686164,13.911361)" style="fill:url(#linearGradient8158);fill-opacity:1;stroke:#204a87;stroke-width:1.24932528;stroke-miterlimit:4;stroke-dasharray:none;stroke-opacity:1"><path id="path1880" d="M 45.862102,50.273522 C 62.924432,34.96305 47.150241,15.929711 22.760624,12.513943 L 22.113577,3.1522143 7.613534,20.510135 22.703188,33.23244 c 0,0 -0.24836,-9.885335 -0.24836,-9.885335 18.835067,0.992479 32.320966,12.327936 23.407274,26.926417 z" style="color:#000;display:block;overflow:visible;visibility:visible;opacity:1;fill:url(#linearGradient1563);fill-opacity:1;fill-rule:nonzero;stroke:#204a87;stroke-width:1.24977946;stroke-linecap:butt;stroke-linejoin:miter;stroke-miterlimit:4;stroke-dasharray:none;stroke-dashoffset:0;stroke-opacity:1;marker:none;marker-start:none;marker-mid:none;marker-end:none"/></g><g style="opacity:.54819282;fill:none;fill-opacity:1;stroke:url(#linearGradient5341);stroke-width:1.24928653;stroke-miterlimit:4;stroke-dasharray:none;stroke-opacity:1" id="g3185" transform="matrix(-0.612811,-0.5154406,-0.5177506,0.6100769,58.675633,13.911365)"><path style="color:#000;display:block;overflow:visible;visibility:visible;opacity:1;fill:none;fill-opacity:1;fill-rule:nonzero;stroke:url(#linearGradient1565);stroke-width:1.24928653;stroke-linecap:butt;stroke-linejoin:miter;stroke-miterlimit:4;stroke-dasharray:none;stroke-dashoffset:0;stroke-opacity:1;marker:none;marker-start:none;marker-mid:none;marker-end:none" id="path3189" d="M 21.042969,6.3164062 9.3085938,20.353516 21.453125,30.587891 21.271484,23.375 a 1.1973567,1.1973567 0 0 1 1.259766,-1.226562 c 9.639005,0.511379 17.913683,3.62653 22.753906,8.728515 3.397403,3.581136 4.814933,8.254638 3.833985,13.345703 1.24406,-2.013739 2.004294,-4.027443 2.271484,-6.003906 C 51.886047,34.55401 50.860894,30.950558 48.566406,27.597656 43.977431,20.891853 34.227213,15.359659 22.302734,13.685547 a 1.1973567,1.1973567 0 0 1 -1.03125,-1.140625 z" transform="translate(1.0080026e-6)"/></g><path id="path8160" d="m 27.340608,36.228853 c 0,0 7.845509,1.827347 6.110474,-11.253151 h 9.265158 c 0,0 -0.905668,13.486521 -15.375632,11.253151 z" style="color:#000;display:block;overflow:visible;visibility:visible;opacity:.51807233;fill:url(#linearGradient8170);fill-opacity:1;fill-rule:nonzero;stroke:url(#linearGradient8172);stroke-width:1.04300582;stroke-linecap:butt;stroke-linejoin:miter;stroke-miterlimit:4;stroke-dasharray:none;stroke-dashoffset:0;stroke-opacity:1;marker:none;marker-start:none;marker-mid:none;marker-end:none"/><g style="fill:url(#linearGradient8174);fill-opacity:1;stroke:#204a87;stroke-width:1.24932528;stroke-miterlimit:4;stroke-dasharray:none;stroke-opacity:1" id="g8162" transform="matrix(0.6101332,0.5154999,0.5154881,-0.6101471,-10.618024,32.088556)"><path style="color:#000;display:block;overflow:visible;visibility:visible;opacity:1;fill:url(#linearGradient8180);fill-opacity:1;fill-rule:nonzero;stroke:#204a87;stroke-width:1.25256371;stroke-linecap:butt;stroke-linejoin:miter;stroke-miterlimit:4;stroke-dasharray:none;stroke-dashoffset:0;stroke-opacity:1;marker:none;marker-start:none;marker-mid:none;marker-end:none;enable-background:accumulate" id="path8164" d="M 45.862102,50.273522 C 62.924432,34.96305 47.150241,15.929711 22.760624,12.513943 L 22.113577,3.1522141 7.6135337,20.510135 22.703188,33.23244 c 0,0 -0.24836,-9.885335 -0.24836,-9.885335 18.835067,0.992479 32.320966,12.327936 23.407274,26.926417 z"/></g><g id="g8166" transform="matrix(0.6128107,0.5154406,0.5177504,-0.6100769,-10.856505,32.088635)" style="fill:none;fill-opacity:1;stroke:#204a87;stroke-width:1.24928653;stroke-miterlimit:4;stroke-dasharray:none;stroke-opacity:1"><path id="path8168" d="M 21.042969,6.3164062 9.3085938,20.353516 21.453125,30.587891 21.271484,23.375 a 1.1973567,1.1973567 0 0 1 1.259766,-1.226562 c 9.639005,0.511379 17.913683,3.62653 22.753906,8.728515 3.397403,3.581136 4.814933,8.254638 3.833985,13.345703 1.24406,-2.013739 2.004294,-4.027443 2.271484,-6.003906 C 51.886047,34.55401 50.860894,30.950558 48.566406,27.597656 43.977431,20.891853 34.227213,15.359659 22.302734,13.685547 a 1.1973567,1.1973567 0 0 1 -1.03125,-1.140625 z" transform="matrix(0.9972307,-0.00246056,-0.00246056,0.9980642,0.2457029,0.2077351)" style="color:#000;display:block;overflow:visible;visibility:visible;opacity:1;fill:none;fill-opacity:1;fill-rule:nonzero;stroke:url(#linearGradient8178);stroke-width:1.2497319;stroke-linecap:butt;stroke-linejoin:miter;stroke-miterlimit:4;stroke-dasharray:none;stroke-dashoffset:0;stroke-opacity:.70588235;marker:none;marker-start:none;marker-mid:none;marker-end:none"/></g></g></g></svg>