<svg xmlns="http://www.w3.org/2000/svg" xmlns:svg="http://www.w3.org/2000/svg" id="f41b26de-8c45-4686-94a3-20560fef99a7" data-name="Layer 1" version="1.1" viewBox="0 0 256 256"><metadata id="metadata233"/><defs id="defs195"><style id="style188">.e88e6e24-0329-45b7-a533-c966e01c5ca3{fill:#383838}.bd4965fe-53a1-420e-91b4-9cb243d04cb2{fill:#333}.e0c8eb48-5d42-491a-ad87-581a1e0759fd{fill:#1a1a1a}.a96e9dd2-e967-4ba0-8e62-b0daee40e4a3{fill:#ccc}.f2168913-f0ec-49af-a204-a2d4883a9044{fill:#f9f9f9}.a6b5ea86-cafe-45ac-9fce-3ffaa00e8bdf{fill:#f2f2f2}.fdf11c41-079a-4e51-a3cf-ecdc9f502931{fill:#020202}.a8ddd79c-bc29-424b-bece-e802665aa07f{fill:#ebf0f2}.a18db10b-ba06-4c30-8bb8-be9abcd5fe56{opacity:.64;isolation:isolate;fill:url(#bff55c14-b1d6-4710-9e67-1b1aca58fd15)}.e5f4e197-925e-4ceb-9be1-61f919cb8017{fill-opacity:.05}.a3ad0cae-7cee-43c7-a27c-c50cf5ca106e{fill:#999}.e7d33ecc-dd4f-46c7-83a5-0762ca29ac41{fill:#666}.ecb5f5dc-cfdb-4c6b-896e-29308c993350{fill:#b3b3b3}.b8fb0400-464c-410e-85d7-1fb754252ca9{fill:gray}</style><radialGradient id="bff55c14-b1d6-4710-9e67-1b1aca58fd15" cx="-554.13" cy="482.57" r="5.4" gradientTransform="matrix(-35.85, 5.08, -2.53, -17.91, -18555.39, 11512.67)" gradientUnits="userSpaceOnUse"><stop id="stop190" offset="0" stop-color="#fff"/><stop id="stop192" offset="1" stop-color="#fff" stop-opacity="0"/></radialGradient><filter style="color-interpolation-filters:sRGB" id="filter2721" width="1" height="1" x="0" y="0"><feColorMatrix id="feColorMatrix2719" result="fbSourceGraphic" type="matrix" values="0.299 0.587 0.114 0 0 0.299 0.587 0.114 0 0 0.299 0.587 0.114 0 0 0 0 0 1 0"/><feColorMatrix id="feColorMatrix2787" in="fbSourceGraphic" result="fbSourceGraphicAlpha" values="0 0 0 -1 0 0 0 0 -1 0 0 0 0 -1 0 0 0 0 1 0"/><feColorMatrix id="feColorMatrix2789" in="fbSourceGraphic" result="colormatrix1" type="matrix" values="0.299 0.587 0.114 0 0 0.299 0.587 0.114 0 0 0.299 0.587 0.114 0 0 0 0 0 1 0"/></filter><filter style="color-interpolation-filters:sRGB" id="filter2725" width="1" height="1" x="0" y="0"><feColorMatrix id="feColorMatrix2723" result="fbSourceGraphic" type="matrix" values="0.299 0.587 0.114 0 0 0.299 0.587 0.114 0 0 0.299 0.587 0.114 0 0 0 0 0 1 0"/><feColorMatrix id="feColorMatrix2791" in="fbSourceGraphic" result="fbSourceGraphicAlpha" values="0 0 0 -1 0 0 0 0 -1 0 0 0 0 -1 0 0 0 0 1 0"/><feColorMatrix id="feColorMatrix2793" in="fbSourceGraphic" result="colormatrix1" type="matrix" values="0.299 0.587 0.114 0 0 0.299 0.587 0.114 0 0 0.299 0.587 0.114 0 0 0 0 0 1 0"/></filter><filter style="color-interpolation-filters:sRGB" id="filter2729" width="1" height="1" x="0" y="0"><feColorMatrix id="feColorMatrix2727" result="fbSourceGraphic" type="matrix" values="0.299 0.587 0.114 0 0 0.299 0.587 0.114 0 0 0.299 0.587 0.114 0 0 0 0 0 1 0"/><feColorMatrix id="feColorMatrix2795" in="fbSourceGraphic" result="fbSourceGraphicAlpha" values="0 0 0 -1 0 0 0 0 -1 0 0 0 0 -1 0 0 0 0 1 0"/><feColorMatrix id="feColorMatrix2797" in="fbSourceGraphic" result="colormatrix1" type="matrix" values="0.299 0.587 0.114 0 0 0.299 0.587 0.114 0 0 0.299 0.587 0.114 0 0 0 0 0 1 0"/></filter><filter style="color-interpolation-filters:sRGB" id="filter2733" width="1" height="1" x="0" y="0"><feColorMatrix id="feColorMatrix2731" result="fbSourceGraphic" type="matrix" values="0.299 0.587 0.114 0 0 0.299 0.587 0.114 0 0 0.299 0.587 0.114 0 0 0 0 0 1 0"/><feColorMatrix id="feColorMatrix2799" in="fbSourceGraphic" result="fbSourceGraphicAlpha" values="0 0 0 -1 0 0 0 0 -1 0 0 0 0 -1 0 0 0 0 1 0"/><feColorMatrix id="feColorMatrix2801" in="fbSourceGraphic" result="colormatrix1" type="matrix" values="0.299 0.587 0.114 0 0 0.299 0.587 0.114 0 0 0.299 0.587 0.114 0 0 0 0 0 1 0"/></filter><filter style="color-interpolation-filters:sRGB" id="filter2737" width="1" height="1" x="0" y="0"><feColorMatrix id="feColorMatrix2735" result="fbSourceGraphic" type="matrix" values="0.299 0.587 0.114 0 0 0.299 0.587 0.114 0 0 0.299 0.587 0.114 0 0 0 0 0 1 0"/><feColorMatrix id="feColorMatrix2803" in="fbSourceGraphic" result="fbSourceGraphicAlpha" values="0 0 0 -1 0 0 0 0 -1 0 0 0 0 -1 0 0 0 0 1 0"/><feColorMatrix id="feColorMatrix2805" in="fbSourceGraphic" result="colormatrix1" type="matrix" values="0.299 0.587 0.114 0 0 0.299 0.587 0.114 0 0 0.299 0.587 0.114 0 0 0 0 0 1 0"/></filter><filter style="color-interpolation-filters:sRGB" id="filter2741" width="1" height="1" x="0" y="0"><feColorMatrix id="feColorMatrix2739" result="fbSourceGraphic" type="matrix" values="0.299 0.587 0.114 0 0 0.299 0.587 0.114 0 0 0.299 0.587 0.114 0 0 0 0 0 1 0"/><feColorMatrix id="feColorMatrix2807" in="fbSourceGraphic" result="fbSourceGraphicAlpha" values="0 0 0 -1 0 0 0 0 -1 0 0 0 0 -1 0 0 0 0 1 0"/><feColorMatrix id="feColorMatrix2809" in="fbSourceGraphic" result="colormatrix1" type="matrix" values="0.299 0.587 0.114 0 0 0.299 0.587 0.114 0 0 0.299 0.587 0.114 0 0 0 0 0 1 0"/></filter><filter style="color-interpolation-filters:sRGB" id="filter2745" width="1" height="1" x="0" y="0"><feColorMatrix id="feColorMatrix2743" result="fbSourceGraphic" type="matrix" values="0.299 0.587 0.114 0 0 0.299 0.587 0.114 0 0 0.299 0.587 0.114 0 0 0 0 0 1 0"/><feColorMatrix id="feColorMatrix2811" in="fbSourceGraphic" result="fbSourceGraphicAlpha" values="0 0 0 -1 0 0 0 0 -1 0 0 0 0 -1 0 0 0 0 1 0"/><feColorMatrix id="feColorMatrix2813" in="fbSourceGraphic" result="colormatrix1" type="matrix" values="0.299 0.587 0.114 0 0 0.299 0.587 0.114 0 0 0.299 0.587 0.114 0 0 0 0 0 1 0"/></filter><filter style="color-interpolation-filters:sRGB" id="filter2749" width="1" height="1" x="0" y="0"><feColorMatrix id="feColorMatrix2747" result="fbSourceGraphic" type="matrix" values="0.299 0.587 0.114 0 0 0.299 0.587 0.114 0 0 0.299 0.587 0.114 0 0 0 0 0 1 0"/><feColorMatrix id="feColorMatrix2815" in="fbSourceGraphic" result="fbSourceGraphicAlpha" values="0 0 0 -1 0 0 0 0 -1 0 0 0 0 -1 0 0 0 0 1 0"/><feColorMatrix id="feColorMatrix2817" in="fbSourceGraphic" result="colormatrix1" type="matrix" values="0.299 0.587 0.114 0 0 0.299 0.587 0.114 0 0 0.299 0.587 0.114 0 0 0 0 0 1 0"/></filter><filter style="color-interpolation-filters:sRGB" id="filter2753" width="1" height="1" x="0" y="0"><feColorMatrix id="feColorMatrix2751" result="fbSourceGraphic" type="matrix" values="0.299 0.587 0.114 0 0 0.299 0.587 0.114 0 0 0.299 0.587 0.114 0 0 0 0 0 1 0"/><feColorMatrix id="feColorMatrix2819" in="fbSourceGraphic" result="fbSourceGraphicAlpha" values="0 0 0 -1 0 0 0 0 -1 0 0 0 0 -1 0 0 0 0 1 0"/><feColorMatrix id="feColorMatrix2821" in="fbSourceGraphic" result="colormatrix1" type="matrix" values="0.299 0.587 0.114 0 0 0.299 0.587 0.114 0 0 0.299 0.587 0.114 0 0 0 0 0 1 0"/></filter><filter style="color-interpolation-filters:sRGB" id="filter2757" width="1" height="1" x="0" y="0"><feColorMatrix id="feColorMatrix2755" result="fbSourceGraphic" type="matrix" values="0.299 0.587 0.114 0 0 0.299 0.587 0.114 0 0 0.299 0.587 0.114 0 0 0 0 0 1 0"/><feColorMatrix id="feColorMatrix2823" in="fbSourceGraphic" result="fbSourceGraphicAlpha" values="0 0 0 -1 0 0 0 0 -1 0 0 0 0 -1 0 0 0 0 1 0"/><feColorMatrix id="feColorMatrix2825" in="fbSourceGraphic" result="colormatrix1" type="matrix" values="0.299 0.587 0.114 0 0 0.299 0.587 0.114 0 0 0.299 0.587 0.114 0 0 0 0 0 1 0"/></filter><filter style="color-interpolation-filters:sRGB" id="filter2761" width="1" height="1" x="0" y="0"><feColorMatrix id="feColorMatrix2759" result="fbSourceGraphic" type="matrix" values="0.299 0.587 0.114 0 0 0.299 0.587 0.114 0 0 0.299 0.587 0.114 0 0 0 0 0 1 0"/><feColorMatrix id="feColorMatrix2827" in="fbSourceGraphic" result="fbSourceGraphicAlpha" values="0 0 0 -1 0 0 0 0 -1 0 0 0 0 -1 0 0 0 0 1 0"/><feColorMatrix id="feColorMatrix2829" in="fbSourceGraphic" result="colormatrix1" type="matrix" values="0.299 0.587 0.114 0 0 0.299 0.587 0.114 0 0 0.299 0.587 0.114 0 0 0 0 0 1 0"/></filter><filter style="color-interpolation-filters:sRGB" id="filter2765" width="1" height="1" x="0" y="0"><feColorMatrix id="feColorMatrix2763" result="fbSourceGraphic" type="matrix" values="0.299 0.587 0.114 0 0 0.299 0.587 0.114 0 0 0.299 0.587 0.114 0 0 0 0 0 1 0"/><feColorMatrix id="feColorMatrix2831" in="fbSourceGraphic" result="fbSourceGraphicAlpha" values="0 0 0 -1 0 0 0 0 -1 0 0 0 0 -1 0 0 0 0 1 0"/><feColorMatrix id="feColorMatrix2833" in="fbSourceGraphic" result="colormatrix1" type="matrix" values="0.299 0.587 0.114 0 0 0.299 0.587 0.114 0 0 0.299 0.587 0.114 0 0 0 0 0 1 0"/></filter><filter style="color-interpolation-filters:sRGB" id="filter2769" width="1" height="1" x="0" y="0"><feColorMatrix id="feColorMatrix2767" result="fbSourceGraphic" type="matrix" values="0.299 0.587 0.114 0 0 0.299 0.587 0.114 0 0 0.299 0.587 0.114 0 0 0 0 0 1 0"/><feColorMatrix id="feColorMatrix2835" in="fbSourceGraphic" result="fbSourceGraphicAlpha" values="0 0 0 -1 0 0 0 0 -1 0 0 0 0 -1 0 0 0 0 1 0"/><feColorMatrix id="feColorMatrix2837" in="fbSourceGraphic" result="colormatrix1" type="matrix" values="0.299 0.587 0.114 0 0 0.299 0.587 0.114 0 0 0.299 0.587 0.114 0 0 0 0 0 1 0"/></filter><filter style="color-interpolation-filters:sRGB" id="filter2773" width="1" height="1" x="0" y="0"><feColorMatrix id="feColorMatrix2771" result="fbSourceGraphic" type="matrix" values="0.299 0.587 0.114 0 0 0.299 0.587 0.114 0 0 0.299 0.587 0.114 0 0 0 0 0 1 0"/><feColorMatrix id="feColorMatrix2839" in="fbSourceGraphic" result="fbSourceGraphicAlpha" values="0 0 0 -1 0 0 0 0 -1 0 0 0 0 -1 0 0 0 0 1 0"/><feColorMatrix id="feColorMatrix2841" in="fbSourceGraphic" result="colormatrix1" type="matrix" values="0.299 0.587 0.114 0 0 0.299 0.587 0.114 0 0 0.299 0.587 0.114 0 0 0 0 0 1 0"/></filter><filter style="color-interpolation-filters:sRGB" id="filter2777" width="1" height="1" x="0" y="0"><feColorMatrix id="feColorMatrix2775" result="fbSourceGraphic" type="matrix" values="0.299 0.587 0.114 0 0 0.299 0.587 0.114 0 0 0.299 0.587 0.114 0 0 0 0 0 1 0"/><feColorMatrix id="feColorMatrix2843" in="fbSourceGraphic" result="fbSourceGraphicAlpha" values="0 0 0 -1 0 0 0 0 -1 0 0 0 0 -1 0 0 0 0 1 0"/><feColorMatrix id="feColorMatrix2845" in="fbSourceGraphic" result="colormatrix1" type="matrix" values="0.299 0.587 0.114 0 0 0.299 0.587 0.114 0 0 0.299 0.587 0.114 0 0 0 0 0 1 0"/></filter><filter style="color-interpolation-filters:sRGB" id="filter2781" width="1" height="1" x="0" y="0"><feColorMatrix id="feColorMatrix2779" result="fbSourceGraphic" type="matrix" values="0.299 0.587 0.114 0 0 0.299 0.587 0.114 0 0 0.299 0.587 0.114 0 0 0 0 0 1 0"/><feColorMatrix id="feColorMatrix2847" in="fbSourceGraphic" result="fbSourceGraphicAlpha" values="0 0 0 -1 0 0 0 0 -1 0 0 0 0 -1 0 0 0 0 1 0"/><feColorMatrix id="feColorMatrix2849" in="fbSourceGraphic" result="colormatrix1" type="matrix" values="0.299 0.587 0.114 0 0 0.299 0.587 0.114 0 0 0.299 0.587 0.114 0 0 0 0 0 1 0"/></filter><filter style="color-interpolation-filters:sRGB" id="filter2785" width="1" height="1" x="0" y="0"><feColorMatrix id="feColorMatrix2783" result="fbSourceGraphic" type="matrix" values="0.299 0.587 0.114 0 0 0.299 0.587 0.114 0 0 0.299 0.587 0.114 0 0 0 0 0 1 0"/><feColorMatrix id="feColorMatrix2851" in="fbSourceGraphic" result="fbSourceGraphicAlpha" values="0 0 0 -1 0 0 0 0 -1 0 0 0 0 -1 0 0 0 0 1 0"/><feColorMatrix id="feColorMatrix2853" in="fbSourceGraphic" result="colormatrix1" type="matrix" values="0.299 0.587 0.114 0 0 0.299 0.587 0.114 0 0 0.299 0.587 0.114 0 0 0 0 0 1 0"/></filter></defs><title id="title197">Cash Addr Final Grey</title><path id="ee4139a2-eadb-48de-9559-f5961e67c0fa" d="m 72.3,8 h 51 a 22,22 0 0 1 21.46,19.73 L 162.3,228.27 A 22,22 0 0 0 183.7,248 H 132.75 A 22,22 0 0 1 111.29,228.27 L 93.75,27.73 A 22,22 0 0 0 72.3,8 Z" class="e88e6e24-0329-45b7-a533-c966e01c5ca3" data-name="Back" style="display:inline;fill:#383838;filter:url(#filter2721)"/><path id="e4c2f568-58ef-4d00-87a1-58623f4654c0" d="m 93.75,27.73 17.54,200.54 c 0,0.25 0.07,0.49 0.1,0.73 h 51 c 0,-0.24 -0.08,-0.48 -0.1,-0.73 L 144.71,27.73 c 0,-0.25 -0.07,-0.49 -0.1,-0.73 h -51 c 0.07,0.24 0.12,0.48 0.14,0.73 z" class="bd4965fe-53a1-420e-91b4-9cb243d04cb2" data-name="Shadow Back 2" style="display:inline;fill:#333;filter:url(#filter2725)"/><polygon id="bf9b0573-716f-4d1d-9bd1-64094e700f08" points="110.92 224 161.88 224 145.08 32 94.12 32" class="e0c8eb48-5d42-491a-ad87-581a1e0759fd" data-name="Shadow Back 1" style="display:inline;fill:#1a1a1a;filter:url(#filter2729)"/><g id="ab140ced-b7d3-4b0b-a560-830b65119ab5" data-name="QR" style="filter:url(#filter2733)"><rect id="ad98ac34-8585-4896-9d94-f25ae3e6916d" width="186" height="186" x="35" y="35" class="a96e9dd2-e967-4ba0-8e62-b0daee40e4a3" data-name="QR6" rx="16" transform="rotate(90,128,128)" style="fill:#ccc"/><rect id="a06b0687-9043-44f6-bdc5-d8156dada5e6" width="170" height="170" x="43" y="43" class="f2168913-f0ec-49af-a204-a2d4883a9044" data-name="QR5" rx="8" style="fill:#f9f9f9"/><rect id="fb897ee6-eb28-4bed-8642-758d245a92c9" width="154" height="154" x="51" y="51" class="a6b5ea86-cafe-45ac-9fce-3ffaa00e8bdf" data-name="QR4" transform="rotate(90,128,128)" style="fill:#f2f2f2"/><rect id="a54698a8-7083-4d1d-ab97-b56c3a0d9127" width="130" height="130" x="63" y="63" class="fdf11c41-079a-4e51-a3cf-ecdc9f502931" data-name="QR3" rx="10" transform="rotate(90,128,128)" style="fill:#020202"/><rect id="fc5109b9-5364-42f2-876e-89458668e448" width="110" height="110" x="73" y="73" class="a8ddd79c-bc29-424b-bece-e802665aa07f" data-name="QR2" transform="rotate(90,128,128)" style="fill:#ebf0f2"/><rect id="ad998a2b-ea67-4e67-b658-02c49b317641" width="70" height="70" x="93" y="93" class="fdf11c41-079a-4e51-a3cf-ecdc9f502931" data-name="QR1" transform="rotate(90,128,128)" style="fill:#020202"/></g><path id="e8cb1f87-18d6-4fcb-9735-a45a381ca736" d="m 61,73 v 110 a 12,12 0 0 0 12,12 h 110 a 12,12 0 0 0 12,-12 V 73 A 12,12 0 0 0 183,61 H 73 A 12,12 0 0 0 61,73 Z" class="a18db10b-ba06-4c30-8bb8-be9abcd5fe56" data-name="Bright" style="display:inline;opacity:.63999999;isolation:isolate;fill:url(#bff55c14-b1d6-4710-9e67-1b1aca58fd15);filter:url(#filter2737)"/><path id="f3eb30f4-6126-4a2d-ae11-a018419a0ed0" d="M 73.09,8 A 22,22 0 0 1 93.75,27.73 L 94.38,35 H 51 a 15.75,15.75 0 0 0 -4.37,0.62 L 35,68.34 v 88.13 L 99,87.85 109.62,76.47 H 83.07 l 12,-33.74 3.2,-9 C 102.13,22.83 114.11,14 125,14 h 12.93 a 22.24,22.24 0 0 0 -4.88,-3.51 v 0 c -0.55,-0.3 -1.12,-0.56 -1.7,-0.81 l -0.13,-0.06 q -0.81,-0.33 -1.65,-0.6 l -0.26,-0.09 c -0.52,-0.16 -1,-0.29 -1.58,-0.41 l -0.39,-0.1 c -0.51,-0.1 -1,-0.17 -1.56,-0.24 -0.15,0 -0.3,-0.05 -0.46,-0.06 a 19.81,19.81 0 0 0 -2,-0.11 H 72.3 c 0.26,0 0.52,0 0.79,0 z" class="e5f4e197-925e-4ceb-9be1-61f919cb8017" data-name="Shadow Up Back" style="display:inline;fill-opacity:.05;filter:url(#filter2741)"/><path id="babfca75-e68c-40a2-a415-34de2f7f53ca" d="M 92.26,27.73 C 96.13,16.83 108.11,8 119,8 H 68 C 57.15,8 45.18,16.83 41.3,27.73 L 26.11,70.47 H 10.5 l 15.79,71.18 66.4,-71.18 H 77.07 Z" class="a3ad0cae-7cee-43c7-a27c-c50cf5ca106e" data-name="Arrow Up" style="display:inline;fill:#999;filter:url(#filter2745)"/><polygon id="b3facdd8-9e87-4a2d-9d5b-384f735c6ed5" points="26.29 141.65 10.5 70.47 2.3 70.47 21.77 158.22 103.63 70.47 92.69 70.47" class="e7d33ecc-dd4f-46c7-83a5-0762ca29ac41" data-name="Shadow Up" style="display:inline;fill:#666;filter:url(#filter2749)"/><path id="abb015c4-bb27-4649-bcd1-d0afe68fde38" d="M 82.84,8 H 68 C 60.24,8 52,12.49 46.42,19 h 51 C 103,12.49 111.24,8 119,8 Z" class="ecb5f5dc-cfdb-4c6b-896e-29308c993350" data-name="Light Up 3" style="display:inline;fill:#b3b3b3;filter:url(#filter2753)"/><path id="b36b1fbf-dffe-4090-a5f4-33f070a5e0e5" d="M 82.84,8 H 68 a 25.59,25.59 0 0 0 -11.49,3 h 51 A 25.59,25.59 0 0 1 119,8 Z" class="a96e9dd2-e967-4ba0-8e62-b0daee40e4a3" data-name="Light Up 2" style="display:inline;fill:#ccc;filter:url(#filter2757)"/><g id="fefa2226-ddf6-4a0b-b716-821e4575970a" data-name="Light Up 1" style="display:inline;filter:url(#filter2761)"><polygon id="polygon215" points="26.11 70.47 2.3 70.47 12.27 78.47 23.27 78.47" class="a96e9dd2-e967-4ba0-8e62-b0daee40e4a3" style="fill:#ccc"/><polygon id="polygon217" points="85.22 78.47 103.63 70.47 77.14 70.47 74.3 78.47" class="a96e9dd2-e967-4ba0-8e62-b0daee40e4a3" style="fill:#ccc"/></g><path id="e6ca57f9-0266-48af-b152-da21075ba6c8" d="m 182.91,248 a 22,22 0 0 1 -20.66,-19.69 l -0.63,-7.27 H 205 a 15.75,15.75 0 0 0 4.37,-0.62 L 221,187.66 V 99.53 l -64,68.62 -10.62,11.38 h 26.56 l -12,33.74 -3.2,9 C 153.87,233.17 141.89,242 131,242 h -12.93 a 22.42,22.42 0 0 0 4.87,3.51 v 0 c 0.55,0.3 1.12,0.56 1.7,0.81 l 0.13,0.06 c 0.54,0.23 1.09,0.42 1.65,0.6 l 0.26,0.09 c 0.52,0.16 1.05,0.29 1.58,0.41 l 0.39,0.1 c 0.51,0.1 1,0.17 1.56,0.24 0.15,0 0.3,0 0.46,0.06 a 19.81,19.81 0 0 0 2.05,0.11 h 50.98 c -0.26,0 -0.52,0 -0.79,0 z" class="e5f4e197-925e-4ceb-9be1-61f919cb8017" data-name="Shadoe Down Back" style="display:inline;fill-opacity:.05;filter:url(#filter2765)"/><path id="af67dffb-3fca-439f-9c98-5e48f41865f4" d="M 163.74,228.27 C 159.87,239.17 147.89,248 137,248 h 51 c 10.89,0 22.86,-8.83 26.74,-19.73 l 15.19,-42.74 h 15.57 l -15.79,-71.18 -66.4,71.18 h 15.62 z" class="a3ad0cae-7cee-43c7-a27c-c50cf5ca106e" data-name="Arrow Down" style="display:inline;fill:#999;filter:url(#filter2769)"/><polygon id="bbbab90a-e2d6-420d-925c-4abf4fd4eeeb" points="229.71 114.35 245.5 185.53 253.7 185.53 234.23 97.78 152.37 185.53 163.31 185.53" class="a96e9dd2-e967-4ba0-8e62-b0daee40e4a3" data-name="Light Down" style="display:inline;fill:#ccc;filter:url(#filter2773)"/><path id="b0cd49f0-6ed4-4936-87d6-f8484454efb8" d="M 173.16,248 H 188 c 7.76,0 16,-4.49 21.58,-11 h -51 c -5.54,6.51 -13.82,11 -21.58,11 z" class="b8fb0400-464c-410e-85d7-1fb754252ca9" data-name="Shadow Down 3" style="display:inline;fill:gray;filter:url(#filter2777)"/><path id="b9ca9250-d940-4e6d-8f63-58c2450e515e" d="M 173.16,248 H 188 a 25.59,25.59 0 0 0 11.49,-3 h -51 A 25.59,25.59 0 0 1 137,248 Z" class="e7d33ecc-dd4f-46c7-83a5-0762ca29ac41" data-name="Shadow Down 2" style="display:inline;fill:#666;filter:url(#filter2781)"/><g id="bbdcfe13-6655-4ef1-a069-37f45acaa91f" data-name="Shadow Down 1" style="display:inline;filter:url(#filter2785)"><polygon id="polygon225" points="243.73 177.53 253.7 185.53 229.89 185.53 232.73 177.53" class="e7d33ecc-dd4f-46c7-83a5-0762ca29ac41" style="fill:#666"/><polyline id="polyline227" points="152.37 185.53 178.86 185.53 181.7 177.53 170.78 177.53" class="e7d33ecc-dd4f-46c7-83a5-0762ca29ac41" style="fill:#666"/></g></svg>